<svg id="Livello_1" data-name="Livello 1" xmlns="http://www.w3.org/2000/svg" xmlns:xlink="http://www.w3.org/1999/xlink" viewBox="0 0 162.66 101.41"><defs><style>.cls-1{fill:none;}.cls-2{clip-path:url(#clip-path);}</style><clipPath id="clip-path" transform="translate(-18.67 -65.3)"><rect class="cls-1" width="200" height="200"/></clipPath></defs><title>favicon</title><g class="cls-2"><path d="M158,77.37a20.42,20.42,0,0,1,6.73,4.55,21.67,21.67,0,0,1,4.49,6.79,21.33,21.33,0,0,1-4.49,23.23,21.7,21.7,0,0,1-6.73,4.55,20.65,20.65,0,0,1-8.37,1.7,20.34,20.34,0,0,1-8.25-1.7,21.38,21.38,0,0,1-11.28-11.28,20.89,20.89,0,0,1,0-16.5,22.48,22.48,0,0,1,4.55-6.79,20.38,20.38,0,0,1,6.73-4.55,21,21,0,0,1,8.25-1.64A21.3,21.3,0,0,1,158,77.37m-20.62-9.58a32.77,32.77,0,0,0-10,6.73A31.52,31.52,0,0,0,118.13,97a30.3,30.3,0,0,0,2.49,12.25,32.18,32.18,0,0,0,16.8,16.8,30.32,30.32,0,0,0,12.25,2.49,13.3,13.3,0,0,1,5.4,1.09,14.61,14.61,0,0,1,7.46,7.46,13.28,13.28,0,0,1,1.09,5.4,11.68,11.68,0,0,1-1.27,5.4,15.18,15.18,0,0,1-3.46,4.43,15.94,15.94,0,0,1-5.16,3,18,18,0,0,1-6.25,1.09V166.7a27.09,27.09,0,0,0,10.25-1.94,28.48,28.48,0,0,0,8.43-5.22,23.79,23.79,0,0,0,5.7-7.7,22,22,0,0,0,2.06-9.4,23.08,23.08,0,0,0-2.31-10.13,28.25,28.25,0,0,0-5.82-8.19A30.92,30.92,0,0,0,181.33,97a31.52,31.52,0,0,0-9.28-22.44A32.61,32.61,0,0,0,162,67.78a30.75,30.75,0,0,0-12.31-2.49,30.32,30.32,0,0,0-12.25,2.49m-83.7,58A23.57,23.57,0,0,0,62,119a26.16,26.16,0,0,0,8.43,6.73,24.09,24.09,0,0,0,20.13.55,24.6,24.6,0,0,0,12.92-12.92,23.15,23.15,0,0,0,1.94-9.4V66.39H95.09V104A13.7,13.7,0,0,1,94,109.45a13.81,13.81,0,0,1-7.4,7.4,13.69,13.69,0,0,1-5.46,1.09,13.25,13.25,0,0,1-5.4-1.09,14.88,14.88,0,0,1-4.43-3,13.47,13.47,0,0,1-3-4.43A13.7,13.7,0,0,1,67.19,104V66.39H56.88V104a13.72,13.72,0,0,1-1.09,5.46,13.81,13.81,0,0,1-7.4,7.4,13.69,13.69,0,0,1-5.46,1.09,13.26,13.26,0,0,1-5.4-1.09,14.13,14.13,0,0,1-4.37-3,13.92,13.92,0,0,1-3-4.43A13.67,13.67,0,0,1,29.1,104V66.39H18.67V104a23.13,23.13,0,0,0,1.94,9.4,24.61,24.61,0,0,0,12.92,12.92,23.18,23.18,0,0,0,9.4,1.94,23.8,23.8,0,0,0,10.8-2.49" transform="translate(-18.67 -65.3)"/></g></svg>