<?xml version="1.0" encoding="UTF-8"?>
<svg width="119px" height="35px" viewBox="0 0 119 35" version="1.1" xmlns="http://www.w3.org/2000/svg" xmlns:xlink="http://www.w3.org/1999/xlink">
    <!-- Generator: Sketch 41.2 (35397) - http://www.bohemiancoding.com/sketch -->
    <title>logo</title>
    <desc>Created with Sketch.</desc>
    <defs></defs>
    <g id="-" stroke="none" stroke-width="1" fill="none" fill-rule="evenodd">
        <g id="menu_desk" transform="translate(-126.000000, -35.000000)" fill="#FFFFFF">
            <g id="menu">
                <g id="logo" transform="translate(126.000000, 35.000000)">
                    <path d="M11.9694167,20.7993574 C13.1014423,20.2299015 14.0404744,19.4575625 14.78575,18.4838775 C15.5859487,19.4575625 16.5455769,20.2299015 17.6638718,20.7993574 C18.7821667,21.3688133 20.0042051,21.654694 21.3292244,21.654694 C22.46125,21.654694 23.5307244,21.43183 24.5391731,20.9868705 C25.546859,20.5426796 26.4233397,19.9440208 27.1693782,19.1931997 C27.9146538,18.4416102 28.5081282,17.5593762 28.9498013,16.5434238 C29.3914744,15.52824 29.6126923,14.4508079 29.6126923,13.3095906 L29.6126923,0.375794782 L26.0922756,0.375794782 L26.0922756,13.3095906 C26.0922756,13.9774141 25.9679359,14.6029702 25.7192564,15.187796 C25.4713397,15.7718534 25.1326474,16.2798296 24.7047051,16.7101876 C24.2767628,17.1420826 23.7733013,17.4825266 23.1927949,17.7322879 C22.6130513,17.9828178 21.9921154,18.1080827 21.3292244,18.1080827 C20.6670962,18.1080827 20.0522628,17.9828178 19.48625,17.7322879 C18.9202372,17.4825266 18.4160128,17.1420826 17.9743397,16.7101876 C17.5326667,16.2798296 17.1878718,15.7718534 16.9391923,15.187796 C16.6905128,14.6029702 16.5669359,13.9774141 16.5669359,13.3095906 L16.5669359,0.375794782 L13.0465192,0.375794782 L13.0465192,13.3095906 C13.0465192,13.9774141 12.9221795,14.6029702 12.6735,15.187796 C12.4248205,15.7718534 12.086891,16.2798296 11.6589487,16.7101876 C11.2302436,17.1420826 10.7267821,17.4825266 10.1470385,17.7322879 C9.56729487,17.9828178 8.94635897,18.1080827 8.28346795,18.1080827 C7.62057692,18.1080827 7.00574359,17.9828178 6.44049359,17.7322879 C5.87448077,17.4825266 5.37712179,17.1420826 4.94917949,16.7101876 C4.52123718,16.2798296 4.18330769,15.7718534 3.93462821,15.187796 C3.68594872,14.6029702 3.56237179,13.9774141 3.56237179,13.3095906 L3.56237179,0.375794782 L0,0.375794782 L0,13.3095906 C0,14.4508079 0.221217949,15.52824 0.662891026,16.5434238 C1.1045641,17.5593762 1.69803846,18.4416102 2.44407692,19.1931997 C3.18935256,19.9440208 4.06583333,20.5426796 5.07351923,20.9868705 C6.08120513,21.43183 7.15067949,21.654694 8.28346795,21.654694 C9.60848718,21.654694 10.8366282,21.3688133 11.9694167,20.7993574 M40.5461987,0.855336589 C39.2478782,1.42556098 38.1089872,2.19789995 37.1295256,3.1708165 C36.1485385,4.14527004 35.3758013,5.29878327 34.8097885,6.63443016 C34.2437756,7.96930856 33.9607692,9.38795307 33.9607692,10.8895952 C33.9607692,12.3920058 34.2437756,13.7968174 34.8097885,15.1040299 C35.3758013,16.4120109 36.1485385,17.5593762 37.1295256,18.5461257 C38.1089872,19.5336437 39.2478782,20.3128991 40.5461987,20.8831235 C41.8437564,21.4525794 43.2381923,21.7384601 44.7287436,21.7384601 C45.3916346,21.7384601 46.0057051,21.8629565 46.5717179,22.1134864 C47.1377308,22.3640162 47.6419551,22.7113766 48.0836282,23.1571046 C48.5253013,23.6012956 48.870859,24.1092717 49.1187756,24.6794961 C49.3674551,25.2497205 49.4917949,25.8691287 49.4917949,26.5361837 C49.4917949,27.2040071 49.346859,27.8226468 49.0569872,28.3928712 C48.7671154,28.9630956 48.3735,29.4710717 47.8769038,29.9160312 C47.3795449,30.3609907 46.7929359,30.7091196 46.1163141,30.9588809 C45.4396923,31.2094108 44.7287436,31.3346757 43.9834679,31.3346757 L43.9834679,34.881287 C45.2261026,34.881287 46.3924551,34.658423 47.4832885,34.2134635 C48.573359,33.7685041 49.5329872,33.1706138 50.3614103,32.4197927 C51.1898333,31.6682032 51.8382308,30.7852007 52.3081282,29.7700169 C52.7772628,28.7540645 53.0122115,27.6766324 53.0122115,26.5361837 C53.0122115,25.3119687 52.7498013,24.1507706 52.2249808,23.0525891 C51.7001603,21.9536391 51.0380321,21.0153049 50.2370705,20.2360495 C51.8664551,19.2907988 53.1571474,17.9974192 54.1099103,16.3559107 C55.0626731,14.7151707 55.5386731,12.892297 55.5386731,10.8895952 C55.5386731,9.38795307 55.2549038,7.96930856 54.6896538,6.63443016 C54.123641,5.29878327 53.350141,4.14527004 52.3699167,3.1708165 C51.3896923,2.19789995 50.2439359,1.42556098 48.9326474,0.855336589 C47.621359,0.285112196 46.2200577,0 44.7287436,0 C43.2381923,0 41.8437564,0.285112196 40.5461987,0.855336589 M47.5870321,4.15141802 C48.4703782,4.5272128 49.23625,5.04825341 49.8854103,5.71607686 C50.5338077,6.38390031 51.0448974,7.16238725 51.4179167,8.05230618 C51.7901731,8.9429936 51.9770641,9.88824428 51.9770641,10.8895952 C51.9770641,11.8909461 51.7901731,12.8369653 51.4179167,13.7268842 C51.0448974,14.6175717 50.5338077,15.3899106 49.8854103,16.0431326 C49.23625,16.6963546 48.4703782,17.2181638 47.5870321,17.6077915 C46.7029231,17.9974192 45.7501603,18.1918488 44.7287436,18.1918488 C43.7347885,18.1918488 42.7957564,17.9974192 41.9124103,17.6077915 C41.0290641,17.2181638 40.2624295,16.6963546 39.6140321,16.0431326 C38.9648718,15.3899106 38.4476795,14.6175717 38.0609295,13.7268842 C37.6741795,12.8369653 37.4811859,11.8909461 37.4811859,10.8895952 C37.4811859,9.88824428 37.6741795,8.9429936 38.0609295,8.05230618 C38.4476795,7.16238725 38.9648718,6.38390031 39.6140321,5.71607686 C40.2624295,5.04825341 41.0290641,4.5272128 41.9124103,4.15141802 C42.7957564,3.77562323 43.7347885,3.58811009 44.7287436,3.58811009 C45.7501603,3.58811009 46.7029231,3.77562323 47.5870321,4.15141802" id="Fill-1"></path>
                    <path d="M71.0177506,16.5368916 L68.0335968,16.5368916 L68.0335968,17.3015456 L70.183225,17.3015456 L70.183225,20.3324958 C69.8376673,20.5369158 69.4539686,20.6767822 69.0328917,20.7528633 C68.6110519,20.829713 68.160225,20.8681378 67.6796481,20.8681378 C67.0983788,20.8681378 66.5735583,20.7659278 66.1051865,20.5622762 C65.6375776,20.3586247 65.2393853,20.0781234 64.9106096,19.7215411 C64.581834,19.3649587 64.3293404,18.9445911 64.152366,18.4604383 C63.9746288,17.9762855 63.8861417,17.4537079 63.8861417,16.893474 C63.8861417,16.3332401 63.9746288,15.8106624 64.152366,15.3265097 C64.3293404,14.8423569 64.581834,14.4219893 64.9106096,14.0654069 C65.2393853,13.7088246 65.6375776,13.4290918 66.1051865,13.2246718 C66.5735583,13.0210202 67.0983788,12.9195787 67.6796481,12.9195787 C67.9237506,12.9195787 68.1731929,12.9472445 68.4256865,13.0018078 C68.6789429,13.0571395 68.9207571,13.1339892 69.1526545,13.2315882 C69.3845519,13.3291873 69.5996673,13.4475358 69.7972378,13.5881706 C69.9955712,13.728037 70.161866,13.8786623 70.2968853,14.0400465 L70.9040904,13.402963 C70.0863468,12.5714498 69.0115327,12.1549247 67.6796481,12.1549247 C66.9969237,12.1549247 66.3714109,12.2740416 65.8023468,12.511507 C65.2332827,12.7497409 64.7466032,13.0786574 64.3415455,13.499025 C63.9372506,13.9193926 63.6206801,14.4181468 63.3933596,14.9952877 C63.1660391,15.573197 63.051616,16.2056696 63.051616,16.893474 C63.051616,17.5812784 63.1660391,18.2160564 63.3933596,18.7978083 C63.6206801,19.3795601 63.9372506,19.8806198 64.3415455,20.3009874 C64.7466032,20.721355 65.2332827,21.0487345 65.8023468,21.2815889 C66.3714109,21.5152119 66.9969237,21.6320233 67.6796481,21.6320233 C68.2616801,21.6320233 68.8322699,21.5705436 69.3929429,21.4475842 C69.953616,21.3246247 70.4952186,21.1140567 71.0177506,20.8166486 L71.0177506,16.5368916 Z M78.0227314,21.4030114 L83.0298853,21.4030114 L83.0298853,20.6383574 L78.8572571,20.6383574 L78.8572571,12.3839366 L78.0227314,12.3839366 L78.0227314,21.4030114 Z M87.7334365,21.4030114 L88.6053404,21.4030114 L89.6168404,19.0083763 L94.3585327,19.0083763 L95.3326545,21.4030114 L96.2678724,21.4030114 L92.5003019,12.3839366 L91.6398404,12.3839366 L87.7334365,21.4030114 Z M94.0549301,18.2437223 L89.945616,18.2437223 L92.0319301,13.3015214 L94.0549301,18.2437223 Z M101.553456,20.2694791 C101.907404,20.7620853 102.333058,21.1117512 102.830417,21.3200138 C103.327776,21.5282763 103.870904,21.6320233 104.461328,21.6320233 C104.823667,21.6320233 105.173802,21.5766916 105.510969,21.4667966 C105.847372,21.3561331 106.144872,21.1924433 106.401943,20.9764958 C106.659013,20.7597798 106.863449,20.4946485 107.015251,20.1803335 C107.167052,19.8660184 107.242571,19.5048251 107.242571,19.0975219 C107.242571,18.5365195 107.128911,18.097708 106.90159,17.7787819 C106.67427,17.4606244 106.389738,17.2124 106.047994,17.0333404 C105.707013,16.8550492 105.33552,16.7128773 104.935039,16.6068248 C104.535321,16.5007723 104.163828,16.3778129 103.822847,16.237178 C103.481103,16.0973116 103.196571,15.9067245 102.969251,15.6646481 C102.74193,15.4225717 102.627507,15.0767483 102.627507,14.6264094 C102.627507,14.3374547 102.68243,14.0869248 102.792276,13.8748198 C102.90136,13.6627148 103.047058,13.4859606 103.22861,13.3460942 C103.409398,13.2062279 103.622225,13.0994068 103.86709,13.0271682 C104.111193,12.955698 104.368263,12.9195787 104.638302,12.9195787 C105.025815,12.9195787 105.360693,12.9933543 105.643699,13.1424427 C105.925943,13.2907625 106.172334,13.5136265 106.382872,13.8110346 L107.103738,13.288457 C106.800135,12.8811538 106.440084,12.5898937 106.022821,12.4162135 C105.605558,12.2417648 105.152443,12.1549247 104.663475,12.1549247 C104.284353,12.1549247 103.922013,12.2079509 103.576456,12.3140034 C103.230135,12.4208245 102.925007,12.5775977 102.659546,12.7858603 C102.394084,12.9933543 102.182783,13.2523376 102.027167,13.5628102 C101.871552,13.8725143 101.792981,14.2267912 101.792981,14.6264094 C101.792981,15.0506194 101.858584,15.4072018 101.989026,15.6961565 C102.120231,15.9851112 102.294917,16.2248821 102.513847,16.4162377 C102.733539,16.6068248 102.97993,16.7620611 103.253783,16.8811781 C103.527635,16.9995265 103.809879,17.105579 104.101276,17.1993356 C104.391911,17.2930922 104.674154,17.3860802 104.948007,17.4798368 C105.22186,17.5728249 105.468251,17.6857939 105.687943,17.8172068 C105.906872,17.9486197 106.081558,18.1161519 106.212763,18.320572 C106.343206,18.5242235 106.408808,18.7832069 106.408808,19.0975219 C106.408808,19.3688012 106.355411,19.6131831 106.250142,19.8298991 C106.144872,20.0466151 106.001462,20.2310542 105.820674,20.383985 C105.639122,20.5369158 105.426296,20.6560328 105.182193,20.7405674 C104.937328,20.825102 104.676443,20.8681378 104.398013,20.8681378 C103.951001,20.8681378 103.552808,20.7743812 103.203437,20.5876366 C102.853302,20.400892 102.56877,20.1165483 102.34984,19.733837 L101.553456,20.2694791 Z M113.13536,20.2694791 C113.489308,20.7620853 113.914962,21.1117512 114.412321,21.3200138 C114.90968,21.5282763 115.452808,21.6320233 116.043231,21.6320233 C116.405571,21.6320233 116.755706,21.5766916 117.092872,21.4667966 C117.430039,21.3561331 117.726776,21.1924433 117.983847,20.9764958 C118.240917,20.7597798 118.445353,20.4946485 118.597154,20.1803335 C118.748956,19.8660184 118.825238,19.5048251 118.825238,19.0975219 C118.825238,18.5365195 118.710815,18.097708 118.483494,17.7787819 C118.256174,17.4606244 117.971642,17.2124 117.629898,17.0333404 C117.288917,16.8550492 116.917424,16.7128773 116.517706,16.6068248 C116.117225,16.5007723 115.745731,16.3778129 115.404751,16.237178 C115.063007,16.0973116 114.778475,15.9067245 114.551154,15.6646481 C114.323834,15.4225717 114.210174,15.0767483 114.210174,14.6264094 C114.210174,14.3374547 114.264334,14.0869248 114.37418,13.8748198 C114.483263,13.6627148 114.628962,13.4859606 114.810513,13.3460942 C114.991302,13.2062279 115.204129,13.0994068 115.448994,13.0271682 C115.693097,12.955698 115.950167,12.9195787 116.220206,12.9195787 C116.607719,12.9195787 116.942597,12.9933543 117.225603,13.1424427 C117.507847,13.2907625 117.754238,13.5136265 117.964776,13.8110346 L118.685642,13.288457 C118.382039,12.8811538 118.021988,12.5898937 117.604725,12.4162135 C117.187462,12.2417648 116.734347,12.1549247 116.245379,12.1549247 C115.866257,12.1549247 115.503917,12.2079509 115.15836,12.3140034 C114.812039,12.4208245 114.506911,12.5775977 114.241449,12.7858603 C113.975988,12.9933543 113.765449,13.2523376 113.609071,13.5628102 C113.453456,13.8725143 113.375648,14.2267912 113.375648,14.6264094 C113.375648,15.0506194 113.440488,15.4072018 113.57093,15.6961565 C113.702135,15.9851112 113.876821,16.2248821 114.095751,16.4162377 C114.315443,16.6068248 114.561834,16.7620611 114.835687,16.8811781 C115.109539,16.9995265 115.391783,17.105579 115.68318,17.1993356 C115.973815,17.2930922 116.256058,17.3860802 116.529911,17.4798368 C116.803763,17.5728249 117.050154,17.6857939 117.269847,17.8172068 C117.488776,17.9486197 117.663462,18.1161519 117.794667,18.320572 C117.92511,18.5242235 117.990712,18.7832069 117.990712,19.0975219 C117.990712,19.3688012 117.937315,19.6131831 117.832046,19.8298991 C117.726776,20.0466151 117.583366,20.2310542 117.402578,20.383985 C117.221026,20.5369158 117.008199,20.6560328 116.764097,20.7405674 C116.519231,20.825102 116.258347,20.8681378 115.979917,20.8681378 C115.532904,20.8681378 115.134712,20.7743812 114.78534,20.5876366 C114.435206,20.400892 114.150674,20.1165483 113.931744,19.733837 L113.13536,20.2694791 Z" id="Fill-3"></path>
                    <path d="M65.0370853,9.01853681 L66.7313096,9.01853681 L68.7039635,2.77680835 L68.7291365,2.77680835 L70.7017904,9.01853681 L72.4593288,9.01853681 L75.076566,0.000230548945 L73.0787391,0.000230548945 L71.5736942,5.9360974 L71.5485212,5.9360974 L69.6902904,0.000230548945 L67.8564699,0.000230548945 L65.9852712,5.7831666 L65.9600981,5.7831666 L64.5313353,0.000230548945 L62.3817071,0.000230548945 L65.0370853,9.01853681 Z M79.9067455,9.01853681 L82.0815468,9.01853681 L82.8275853,7.10805455 L86.3045212,7.10805455 L87.0757327,9.01853681 L89.3008801,9.01853681 L85.4066814,0.000230548945 L83.7757712,0.000230548945 L79.9067455,9.01853681 Z M85.6340019,5.42658423 L83.4469955,5.42658423 L84.5340147,2.62387755 L85.6340019,5.42658423 Z M95.3828481,9.01853681 L97.3555019,9.01853681 L97.3555019,5.41351979 L98.3288609,5.41351979 L100.20006,9.01853681 L102.564803,9.01853681 L100.288547,5.20986823 C100.920925,5.09075127 101.401502,4.80871306 101.730278,4.3629851 C102.059053,3.91725714 102.22306,3.37546711 102.22306,2.73838353 C102.22306,2.21196343 102.132284,1.77238344 101.951496,1.42041205 C101.769944,1.06767217 101.525842,0.787939447 101.218425,0.579676899 C100.910246,0.371414352 100.552483,0.22309453 100.143611,0.133948937 C99.7347391,0.0448033451 99.3022199,0.000230548945 98.8475788,0.000230548945 L95.3828481,0.000230548945 L95.3828481,9.01853681 Z M97.3555019,1.68170086 L98.6454314,1.68170086 C98.8224058,1.68170086 99.0031942,1.6939968 99.1885596,1.71935719 C99.373925,1.74471757 99.5386942,1.79390135 99.6821045,1.86614002 C99.8247519,1.93837869 99.9429891,2.04212571 100.036053,2.17814959 C100.128354,2.31417347 100.174887,2.49630713 100.174887,2.72608758 C100.174887,2.97200646 100.122252,3.16336208 100.016983,3.29938596 C99.9117135,3.43540984 99.7789827,3.53454589 99.6187904,3.5983311 C99.4585981,3.6621163 99.2793353,3.70054113 99.0810019,3.71283707 C98.8834314,3.72590151 98.6957776,3.73204948 98.5188032,3.73204948 L97.3555019,3.73204948 L97.3555019,1.68170086 Z M108.760431,9.01853681 L110.733085,9.01853681 L110.733085,2.10206844 L110.758258,2.10206844 L113.021547,9.01853681 L114.525829,9.01853681 L116.877604,2.10206844 L116.902778,2.10206844 L116.902778,9.01853681 L118.875431,9.01853681 L118.875431,0.000230548945 L115.904246,0.000230548945 L113.830899,5.88460814 L113.804963,5.88460814 L111.744585,0.000230548945 L108.760431,0.000230548945 L108.760431,9.01853681 Z" id="Fill-5"></path>
                </g>
            </g>
        </g>
    </g>
</svg>